<?xml version="1.0" encoding="UTF-8"?>
<svg version="1.1" xmlns="http://www.w3.org/2000/svg" width="85" height="85">
<path d="M0 0 C28.05 0 56.1 0 85 0 C85 28.05 85 56.1 85 85 C56.95 85 28.9 85 0 85 C0 56.95 0 28.9 0 0 Z " fill="#05060B" transform="translate(0,0)"/>
<path d="M0 0 C5.94 0 11.88 0 18 0 C18 0.33 18 0.66 18 1 C16.35 1 14.7 1 13 1 C13 19.48 13 37.96 13 57 C14.32 57.33 15.64 57.66 17 58 C11.39 58 5.78 58 0 58 C0 57.67 0 57.34 0 57 C3.63 57 7.26 57 11 57 C10.9668652 53.78893683 10.89954976 50.58468086 10.8125 47.375 C10.80669922 46.47136719 10.80089844 45.56773438 10.79492188 44.63671875 C10.61155243 39.05413786 10.11285743 36.98646561 6.10668945 32.93505859 C3.32072891 28.06377617 4.51833939 21.12878414 4.6875 15.625 C4.71260613 14.20707042 4.73541525 12.78909821 4.75585938 11.37109375 C4.81069176 7.91317012 4.89683389 4.45685812 5 1 C3.35 1 1.7 1 0 1 C0 0.67 0 0.34 0 0 Z " fill="#D5D5D6" transform="translate(10,14)"/>
<path d="M0 0 C5.94 0 11.88 0 18 0 C18 0.33 18 0.66 18 1 C16.35 1 14.7 1 13 1 C13 19.48 13 37.96 13 57 C14.65 57 16.3 57 18 57 C18 57.33 18 57.66 18 58 C14.04 58 10.08 58 6 58 C5.90082206 53.53432237 5.82838775 49.06923493 5.78027344 44.6027832 C5.76020797 43.0847659 5.73294866 41.56682541 5.69824219 40.04907227 C5.64949607 37.86194878 5.62698195 35.67585048 5.609375 33.48828125 C5.5779541 31.51661987 5.5779541 31.51661987 5.54589844 29.50512695 C6.07510448 25.42028226 7.36325371 24.05872799 10 21 C10.62612727 18.60719034 10.62612727 18.60719034 10.609375 16.13671875 C10.64160156 15.25048828 10.67382812 14.36425781 10.70703125 13.45117188 C10.72830078 12.0831543 10.72830078 12.0831543 10.75 10.6875 C10.77964844 9.75615234 10.80929688 8.82480469 10.83984375 7.86523438 C10.91024225 5.5772831 10.95742069 3.28863802 11 1 C7.37 1 3.74 1 0 1 C0 0.67 0 0.34 0 0 Z " fill="#E6E6E7" transform="translate(57,14)"/>
<path d="M0 0 C9.3108391 -0.67578671 16.87201856 0.1360111 25 5 C28.12626823 8.26837133 28.8551675 10.00427655 29.5 14.4375 C28.77768407 19.58400102 26.92826326 23.13601218 23.125 26.8125 C17.90013794 29.73227586 13.01575354 30.27341046 7.125 30.125 C6.43664063 30.11597656 5.74828125 30.10695313 5.0390625 30.09765625 C3.35922162 30.07432513 1.67956254 30.03846326 0 30 C0 29.67 0 29.34 0 29 C1.42892578 28.96132812 1.42892578 28.96132812 2.88671875 28.921875 C4.14097656 28.86515625 5.39523438 28.8084375 6.6875 28.75 C7.92886719 28.70359375 9.17023437 28.6571875 10.44921875 28.609375 C14.46657095 27.91992842 16.1663515 26.8809636 19 24 C20.63554984 19.09335048 20.63496779 14.11425143 20 9 C17.78436838 6.02638914 16.26080415 4.63040207 13 3 C10.795636 2.77049681 8.58607827 2.58924067 6.375 2.4375 C5.18648437 2.35371094 3.99796875 2.26992188 2.7734375 2.18359375 C1.40058594 2.09271484 1.40058594 2.09271484 0 2 C0 1.34 0 0.68 0 0 Z " fill="#E0E0E1" transform="translate(29,42)"/>
<path d="M0 0 C5.9577552 0.58409365 9.91197589 1.4799709 13.8125 6.1875 C15.65852525 10.55966506 15.87188605 14.52226733 14.30859375 18.96484375 C12.08755284 23.36046029 9.61671108 25.42835367 5 27 C4.01 26.67 3.02 26.34 2 26 C2.97453125 24.9790625 2.97453125 24.9790625 3.96875 23.9375 C6.44972942 20.34962206 6.53727027 18.32335076 6.5 14 C6.5103125 12.80375 6.520625 11.6075 6.53125 10.375 C5.77346445 5.56083298 3.34203082 3.34203082 0 0 Z " fill="#EBEBEB" transform="translate(40,15)"/>
</svg>
